<svg width="1200" height="630" viewBox="0 0 1200 630" fill="none" xmlns="http://www.w3.org/2000/svg">
  <rect width="1200" height="630" fill="#080810"/>
  <g opacity="0.55">
    <path d="M0 120H1200M0 240H1200M0 360H1200M0 480H1200M120 0V630M240 0V630M360 0V630M480 0V630M600 0V630M720 0V630M840 0V630M960 0V630M1080 0V630" stroke="#ffffff" stroke-opacity="0.06" stroke-width="1"/>
  </g>
  <circle cx="930" cy="165" r="220" fill="#A855F7" opacity="0.06"/>
  <circle cx="260" cy="465" r="240" fill="#6366F1" opacity="0.08"/>
  <circle cx="740" cy="480" r="180" fill="#22D3EE" opacity="0.04"/>
  <path d="M160 450L275 175H330L448 450H375L352 389H242L220 450H160ZM264 328H330L297 241L264 328Z" fill="url(#paint0_linear)"/>
  <text x="520" y="220" fill="white" font-family="Inter, Arial, sans-serif" font-size="74" font-weight="800">Anirudh Kumar R</text>
  <text x="524" y="292" fill="#818CF8" font-family="Inter, Arial, sans-serif" font-size="35" font-weight="600">AI Engineer · RAG Systems · Automation</text>
  <text x="524" y="362" fill="#94A3B8" font-family="Inter, Arial, sans-serif" font-size="28">Building intelligent systems that automate, reason, and scale.</text>
  <rect x="524" y="410" width="430" height="56" rx="12" fill="#0F0F1A" stroke="#6366F1" stroke-opacity="0.55"/>
  <text x="550" y="447" fill="#FFFFFF" font-family="Inter, Arial, sans-serif" font-size="22" font-weight="700">AI Systems Engineer · Available Now</text>
  <defs>
    <linearGradient id="paint0_linear" x1="160" y1="175" x2="448" y2="450" gradientUnits="userSpaceOnUse">
      <stop stop-color="#FFFFFF"/>
      <stop offset="0.55" stop-color="#6366F1"/>
      <stop offset="1" stop-color="#22D3EE"/>
    </linearGradient>
  </defs>
</svg>
